# This file uses centimeters as units for non-parametric coordinates.

mtllib Landing Pad Edge.mtl
g default
v 0.258985 -0.000037 -0.151735
v 0.147907 -0.000037 -0.262812
v -0.003827 -0.000037 -0.303469
v -0.155562 -0.000037 -0.262812
v -0.266639 -0.000037 -0.151735
v -0.307296 -0.000037 0.000000
v -0.266639 -0.000037 0.151735
v -0.155562 -0.000037 0.262812
v -0.003827 -0.000037 0.303469
v 0.147907 -0.000037 0.262812
v 0.258985 -0.000037 0.151735
v 0.299642 -0.000037 0.000000
v -0.003827 -0.000037 0.000000
v -0.003827 0.143308 0.000000
v 0.258985 0.072123 -0.151735
v 0.194301 0.143308 -0.114389
v 0.147907 0.072123 -0.262812
v 0.110562 0.143308 -0.198128
v -0.003827 0.072123 -0.303469
v -0.003827 0.143308 -0.228778
v -0.155562 0.072123 -0.262812
v -0.118216 0.143308 -0.198128
v -0.266639 0.072123 -0.151735
v -0.201955 0.143308 -0.114389
v -0.307296 0.072123 0.000000
v -0.232605 0.143308 0.000000
v -0.266639 0.072123 0.151735
v -0.201955 0.143308 0.114389
v -0.155562 0.072123 0.262812
v -0.118216 0.143308 0.198128
v -0.003827 0.072123 0.303469
v -0.003827 0.143308 0.228778
v 0.147907 0.072123 0.262812
v 0.110562 0.143308 0.198128
v 0.258985 0.072123 0.151735
v 0.194301 0.143308 0.114389
v 0.299642 0.072123 0.000000
v 0.224951 0.143308 -0.000000
vt 0.417689 0.326289
vt 0.344168 0.252767
vt 0.243736 0.225856
vt 0.143304 0.252767
vt 0.069782 0.326289
vt 0.042871 0.426721
vt 0.069782 0.527153
vt 0.143304 0.600675
vt 0.243736 0.627585
vt 0.344168 0.600675
vt 0.417689 0.527153
vt 0.444600 0.426721
vt 0.243736 0.418686
vt 0.999874 0.108133
vt 0.989690 0.213500
vt 0.927304 0.213500
vt 0.017004 0.213500
vt 0.079391 0.213500
vt 0.099758 0.213500
vt 0.162145 0.213500
vt 0.182513 0.213500
vt 0.244900 0.213500
vt 0.265268 0.213500
vt 0.327654 0.213500
vt 0.348022 0.213500
vt 0.410409 0.213500
vt 0.430777 0.213500
vt 0.493164 0.213500
vt 0.513532 0.213500
vt 0.575918 0.213500
vt 0.596286 0.213500
vt 0.658673 0.213500
vt 0.679040 0.213500
vt 0.741427 0.213500
vt 0.761795 0.213500
vt 0.824181 0.213500
vt 0.844549 0.213500
vt 0.906936 0.213500
vt 0.006820 0.002745
vt 0.089575 0.002745
vt 0.006820 0.108133
vt 0.172329 0.002745
vt 0.089575 0.108133
vt 0.255084 0.002745
vt 0.172329 0.108133
vt 0.337838 0.002745
vt 0.255084 0.108133
vt 0.420593 0.002745
vt 0.337838 0.108133
vt 0.503348 0.002745
vt 0.420593 0.108133
vt 0.586102 0.002745
vt 0.503348 0.108133
vt 0.668856 0.002745
vt 0.586102 0.108133
vt 0.751611 0.002745
vt 0.668856 0.108133
vt 0.834365 0.002745
vt 0.751611 0.108133
vt 0.917120 0.002745
vt 0.834365 0.108133
vt 0.999874 0.002745
vt 0.917120 0.108133
vt 0.865288 0.677424
vt 0.741526 0.710586
vt 0.617764 0.677424
vt 0.527165 0.586825
vt 0.494003 0.463063
vt 0.527165 0.339301
vt 0.617764 0.248701
vt 0.741526 0.215540
vt 0.865288 0.248701
vt 0.955888 0.339301
vt 0.989049 0.463063
vt 0.955888 0.586825
vt 0.741526 0.453162
vn 0.000000 -1.000000 0.000000
vn 0.000000 -1.000000 0.000000
vn 0.000000 -1.000000 0.000000
vn 0.000000 -1.000000 0.000000
vn 0.000000 -1.000000 0.000000
vn 0.000000 -1.000000 0.000000
vn 0.000000 -1.000000 0.000000
vn 0.000000 -1.000000 0.000000
vn 0.000000 -1.000000 0.000000
vn 0.000000 -1.000000 0.000000
vn 0.000000 -1.000000 0.000000
vn 0.000000 -1.000000 0.000000
vn 0.000000 -1.000000 0.000000
vn 0.597483 0.723892 -0.344957
vn 0.597483 0.723892 -0.344957
vn 0.689914 0.723892 0.000000
vn 0.689914 0.723892 0.000000
vn 0.344957 0.723892 -0.597483
vn 0.344957 0.723892 -0.597483
vn 0.000000 0.723892 -0.689914
vn 0.000000 0.723892 -0.689914
vn -0.344957 0.723892 -0.597483
vn -0.344957 0.723892 -0.597483
vn -0.597483 0.723892 -0.344957
vn -0.597483 0.723892 -0.344957
vn -0.689914 0.723892 0.000000
vn -0.689914 0.723892 0.000000
vn -0.597483 0.723892 0.344957
vn -0.597483 0.723892 0.344957
vn -0.344957 0.723892 0.597483
vn -0.344957 0.723892 0.597483
vn 0.000000 0.723892 0.689914
vn 0.000000 0.723892 0.689914
vn 0.344957 0.723892 0.597483
vn 0.344957 0.723892 0.597483
vn 0.597483 0.723892 0.344957
vn 0.597483 0.723892 0.344957
vn 0.866025 0.000000 -0.500000
vn 0.500000 0.000000 -0.866025
vn 0.500000 0.000000 -0.866025
vn 0.866025 0.000000 -0.500000
vn 0.258819 0.000000 -0.965926
vn 0.258819 0.000000 -0.965926
vn -0.258819 0.000000 -0.965926
vn -0.500000 0.000000 -0.866025
vn -0.500000 0.000000 -0.866025
vn -0.258819 0.000000 -0.965926
vn -0.866025 0.000000 -0.500000
vn -0.866025 0.000000 -0.500000
vn -0.965926 0.000000 -0.258819
vn -0.965926 0.000000 -0.258819
vn -0.965926 0.000000 0.258819
vn -0.866025 0.000000 0.500000
vn -0.866025 0.000000 0.500000
vn -0.965926 0.000000 0.258819
vn -0.500000 0.000000 0.866025
vn -0.500000 0.000000 0.866025
vn -0.258819 0.000000 0.965926
vn -0.258819 0.000000 0.965926
vn 0.258819 0.000000 0.965926
vn 0.258819 0.000000 0.965926
vn 0.258819 0.000000 0.965926
vn 0.258819 0.000000 0.965926
vn 0.707107 0.000000 0.707107
vn 0.707107 0.000000 0.707107
vn 0.707107 0.000000 0.707107
vn 0.707107 0.000000 0.707107
vn 0.965926 0.000000 0.258819
vn 0.965926 0.000000 0.258819
vn 0.965926 0.000000 0.258819
vn 0.965926 0.000000 0.258819
vn 0.965926 0.000000 -0.258819
vn 0.965926 0.000000 -0.258819
vn -0.000000 1.000000 0.000000
vn -0.000000 1.000000 0.000000
vn 0.000000 1.000000 0.000000
vn 0.000000 1.000000 0.000000
vn 0.000000 1.000000 0.000000
vn 0.000000 1.000000 0.000000
vn 0.000000 1.000000 0.000000
vn 0.000000 1.000000 -0.000000
vn 0.000000 1.000000 0.000000
vn 0.000000 1.000000 0.000000
vn 0.000000 1.000000 0.000000
vn 0.000000 1.000000 0.000000
vn 0.000000 1.000000 0.000000
s 1
g pCylinder4
usemtl initialShadingGroup
f 2/2/1 1/1/2 13/13/3
f 3/3/4 2/2/1 13/13/3
f 4/4/5 3/3/4 13/13/3
f 5/5/6 4/4/5 13/13/3
f 6/6/7 5/5/6 13/13/3
f 7/7/8 6/6/7 13/13/3
f 8/8/9 7/7/8 13/13/3
f 9/9/10 8/8/9 13/13/3
f 10/10/11 9/9/10 13/13/3
f 11/11/12 10/10/11 13/13/3
f 12/12/13 11/11/12 13/13/3
f 1/1/2 12/12/13 13/13/3
s 2
f 15/14/14 16/15/15 38/16/16 37/63/17
f 16/17/15 15/41/14 17/43/18 18/18/19
f 18/19/19 17/43/18 19/45/20 20/20/21
f 20/21/21 19/45/20 21/47/22 22/22/23
f 22/23/23 21/47/22 23/49/24 24/24/25
f 24/25/25 23/49/24 25/51/26 26/26/27
f 26/27/27 25/51/26 27/53/28 28/28/29
f 28/29/29 27/53/28 29/55/30 30/30/31
f 30/31/31 29/55/30 31/57/32 32/32/33
f 32/33/33 31/57/32 33/59/34 34/34/35
f 34/35/35 33/59/34 35/61/36 36/36/37
f 36/37/37 35/61/36 37/63/17 38/38/16
s 3
f 1/39/38 2/40/39 17/43/40 15/41/41
f 2/40/39 3/42/42 19/45/43 17/43/40
s 4
f 3/42/44 4/44/45 21/47/46 19/45/47
f 4/44/45 5/46/48 23/49/49 21/47/46
f 5/46/48 6/48/50 25/51/51 23/49/49
s 5
f 6/48/52 7/50/53 27/53/54 25/51/55
f 7/50/53 8/52/56 29/55/57 27/53/54
f 8/52/56 9/54/58 31/57/59 29/55/57
s off
f 9/54/60 10/56/61 33/59/62 31/57/63
f 10/56/64 11/58/65 35/61/66 33/59/67
f 11/58/68 12/60/69 37/63/70 35/61/71
s 3
f 12/60/72 1/62/38 15/14/41 37/63/73
s 6
f 16/75/74 18/64/75 14/76/76
f 18/64/75 20/65/77 14/76/76
f 20/65/77 22/66/78 14/76/76
f 22/66/78 24/67/79 14/76/76
f 24/67/79 26/68/80 14/76/76
f 26/68/80 28/69/81 14/76/76
f 28/69/81 30/70/82 14/76/76
f 30/70/82 32/71/83 14/76/76
f 32/71/83 34/72/84 14/76/76
f 34/72/84 36/73/85 14/76/76
f 36/73/85 38/74/86 14/76/76
f 38/74/86 16/75/74 14/76/76
