# This file uses centimeters as units for non-parametric coordinates.

mtllib Buildin wall.mtl
g default
v 0.000000 0.000577 1.000000
v 0.000000 1.000577 1.000000
v 0.000000 1.000577 0.000000
v 0.000000 0.000577 0.000000
v 0.000000 1.000576 0.282941
v 0.000000 0.000576 0.282944
v 0.000000 1.000578 0.717056
v 0.000000 0.000578 0.717059
v 0.000000 0.848579 1.000000
v 0.000000 0.848580 0.717057
v 0.000000 0.848577 0.282942
v 0.000000 0.848579 0.000000
v 0.000000 0.266860 1.000000
v 0.000000 0.266862 0.717058
v 0.000000 0.266860 0.282943
v 0.000000 0.266860 0.000000
v -0.040622 0.266862 0.717058
v -0.040622 0.266860 0.282943
v -0.040622 0.848577 0.282942
v -0.040622 0.848580 0.717057
vt 0.658834 0.784422
vt 0.975398 0.784422
vt 0.975398 0.980227
vt 0.658834 0.980227
vt 0.342270 0.784422
vt 0.342270 0.980227
vt 0.025706 0.784422
vt 0.025706 0.980227
vt 0.025706 0.258884
vt 0.342270 0.258884
vt 0.198941 0.010027
vt 0.873040 0.010023
vt 0.873042 0.989972
vt 0.198943 0.989977
vt 0.658834 0.258884
vt 0.975398 0.258884
vt 0.025706 0.030535
vt 0.342270 0.030535
vt 0.658834 0.030535
vt 0.975398 0.030535
vt 0.645404 0.281179
vt 0.355700 0.281179
vt 0.645404 0.762127
vt 0.355700 0.762127
vn 1.000000 0.000000 0.000000
vn 1.000000 0.000000 0.000000
vn 1.000000 0.000000 0.000000
vn 1.000000 0.000000 0.000000
vn 1.000000 0.000000 0.000000
vn 1.000000 0.000000 0.000000
vn 1.000000 0.000000 0.000000
vn 1.000000 0.000000 0.000000
vn 1.000000 0.000000 0.000000
vn 1.000000 0.000000 0.000000
vn 1.000000 0.000000 0.000000
vn 1.000000 0.000000 0.000000
vn 1.000000 0.000000 0.000000
vn 1.000000 0.000000 0.000000
vn 1.000000 0.000000 0.000000
vn 1.000000 0.000000 0.000000
vn 1.000000 0.000000 0.000000
vn 1.000000 0.000000 0.000000
vn 1.000000 0.000000 0.000000
vn 1.000000 0.000000 0.000000
vn 0.000000 1.000000 -0.000005
vn 0.000000 1.000000 -0.000005
vn 0.000000 1.000000 -0.000005
vn 0.000000 1.000000 -0.000005
vn 0.000000 0.000003 1.000000
vn 0.000000 0.000003 1.000000
vn 0.000000 0.000003 1.000000
vn 0.000000 0.000003 1.000000
vn 0.000000 -1.000000 0.000005
vn 0.000000 -1.000000 0.000005
vn 0.000000 -1.000000 0.000005
vn 0.000000 -1.000000 0.000005
vn 0.000000 -0.000003 -1.000000
vn 0.000000 -0.000003 -1.000000
vn 0.000000 -0.000003 -1.000000
vn 0.000000 -0.000003 -1.000000
s 1
g polySurface20 pCube15
usemtl lambert4SG
f 11/1/1 12/2/2 3/3/3 5/4/4
f 10/5/5 11/1/1 5/4/4 7/6/6
f 9/7/7 10/5/5 7/6/6 2/8/8
f 13/9/9 14/10/10 10/5/5 9/7/7
s off
usemtl lambert2SG
f 17/11/11 18/12/12 19/13/13 20/14/14
s 1
usemtl lambert4SG
f 15/15/15 16/16/16 12/2/2 11/1/1
f 1/17/17 8/18/18 14/10/10 13/9/9
f 8/18/18 6/19/19 15/15/15 14/10/10
f 6/19/19 4/20/20 16/16/16 15/15/15
s off
f 14/10/21 15/15/22 18/21/23 17/22/24
f 15/15/25 11/1/26 19/23/27 18/21/28
f 11/1/29 10/5/30 20/24/31 19/23/32
f 10/5/33 14/10/34 17/22/35 20/24/36
