# This file uses centimeters as units for non-parametric coordinates.

mtllib Research Wall 2.mtl
g default
v 0.000000 0.000000 1.000000
v 0.000000 1.000000 1.000000
v 0.000000 1.000000 0.000000
v 0.000000 0.000000 0.000000
v 0.000000 0.896366 1.000000
v 0.000000 0.896366 0.000000
v 0.000000 0.132401 1.000000
v 0.000000 0.132401 0.000000
v 0.021870 0.132401 1.000000
v 0.050838 0.181669 1.000000
v 0.050838 0.181669 0.000000
v 0.021870 0.132401 0.000000
v 0.021870 0.896366 0.000000
v 0.050838 0.847099 0.000000
v 0.050838 0.847099 1.000000
v 0.021870 0.896366 1.000000
vt 0.372330 0.562312
vt 0.988459 0.562312
vt 0.988459 0.626163
vt 0.372330 0.626163
vt 0.372330 0.121966
vt 0.988459 0.121966
vt 0.988459 0.531956
vt 0.372331 0.531956
vt 0.372330 0.010035
vt 0.988459 0.010035
vt 0.988459 0.091611
vt 0.372330 0.091611
vt 0.988459 0.091611
vt 0.372331 0.091611
vt 0.372331 0.562312
vt 0.988459 0.562312
vn 1.000000 0.000000 0.000000
vn 1.000000 0.000000 0.000000
vn 1.000000 0.000000 0.000000
vn 1.000000 0.000000 0.000000
vn 1.000000 0.000000 0.000000
vn 1.000000 0.000000 0.000000
vn 1.000000 0.000000 0.000000
vn 1.000000 0.000000 0.000000
vn 1.000000 0.000000 0.000000
vn 1.000000 0.000000 0.000000
vn 1.000000 0.000000 0.000000
vn 1.000000 0.000000 0.000000
vn 0.000000 -1.000000 0.000000
vn 0.000000 -1.000000 0.000000
vn 0.000000 -1.000000 0.000000
vn 0.000000 -1.000000 0.000000
vn 0.000000 1.000000 0.000000
vn 0.000000 1.000000 0.000000
vn 0.000000 1.000000 0.000000
vn 0.000000 1.000000 0.000000
vn 0.862036 -0.506847 0.000000
vn 0.862036 -0.506847 0.000000
vn 0.862036 -0.506847 0.000000
vn 0.862036 -0.506847 0.000000
vn 0.862036 0.506847 0.000000
vn 0.862036 0.506847 0.000000
vn 0.862036 0.506847 0.000000
vn 0.862036 0.506847 0.000000
s off
g polySurface22 polySurface21
usemtl lambert4SG
f 5/1/1 6/2/2 3/3/3 2/4/4
f 10/5/5 11/6/6 14/7/7 15/8/8
f 1/9/9 4/10/10 8/11/11 7/12/12
f 7/12/13 8/11/14 12/13/15 9/14/16
f 6/2/17 5/1/18 16/15/19 13/16/20
f 10/5/21 9/14/22 12/13/23 11/6/24
f 14/7/25 13/16/26 16/15/27 15/8/28
