# This file uses centimeters as units for non-parametric coordinates.

mtllib Research Wall 1.mtl
g default
v 0.000000 0.000000 1.000000
v 0.000000 1.000000 1.000000
v 0.000000 1.000000 0.000000
v 0.000000 0.000000 0.000000
v 0.000000 0.896366 1.000000
v 0.000000 0.896366 0.000000
v 0.000000 0.132401 1.000000
v 0.000000 0.132401 0.000000
v 0.021870 0.132401 1.000000
v 0.050838 0.181669 1.000000
v 0.050838 0.181669 0.000000
v 0.021870 0.132401 0.000000
v 0.021870 0.896366 0.000000
v 0.050838 0.847099 0.000000
v 0.050838 0.847099 1.000000
v 0.021870 0.896366 1.000000
v 0.044808 0.243306 0.725695
v 0.044808 0.260441 0.794081
v 0.044808 0.301809 0.822408
v 0.044808 0.712896 0.822408
v 0.044808 0.754264 0.794081
v 0.044808 0.771399 0.725695
v 0.044808 0.771399 0.274305
v 0.044808 0.754264 0.205919
v 0.044808 0.712896 0.177592
v 0.044808 0.301809 0.177592
v 0.044808 0.260441 0.205919
v 0.044808 0.243306 0.274305
v 0.130538 0.304346 0.801320
v 0.104821 0.301809 0.822408
v 0.104821 0.712896 0.822408
v 0.130538 0.710359 0.801320
v 0.130538 0.758643 0.721500
v 0.104821 0.771399 0.725695
v 0.104821 0.771399 0.274305
v 0.130538 0.758643 0.278499
v 0.130538 0.710359 0.198680
v 0.104821 0.712896 0.177592
v 0.104821 0.301809 0.177592
v 0.130538 0.304346 0.198680
v 0.104821 0.243306 0.725695
v 0.130538 0.256062 0.721500
v 0.130538 0.256062 0.278499
v 0.104821 0.243306 0.274305
v 0.130538 0.270204 0.777942
v 0.104821 0.260441 0.794081
v 0.130538 0.744501 0.777942
v 0.104821 0.754264 0.794081
v 0.130538 0.744501 0.222058
v 0.104821 0.754264 0.205919
v 0.130538 0.270204 0.222058
v 0.104821 0.260441 0.205919
vt 0.372330 0.010035
vt 0.372330 0.626163
vt 0.988459 0.010035
vt 0.988459 0.626163
vt 0.988459 0.562312
vt 0.372330 0.091611
vt 0.988459 0.091611
vt 0.372331 0.091611
vt 0.988459 0.121966
vt 0.372331 0.531956
vt 0.372330 0.562312
vt 0.988459 0.562312
vt 0.372330 0.121966
vt 0.988459 0.091611
vt 0.988459 0.531956
vt 0.372331 0.562312
vt 0.069471 0.488485
vt 0.090578 0.482957
vt 0.090086 0.505697
vt 0.069210 0.508487
vt 0.072532 0.286312
vt 0.093349 0.283686
vt 0.072794 0.266369
vt 0.093615 0.260936
vt 0.072724 0.242009
vt 0.093707 0.232806
vt 0.072618 0.063326
vt 0.093579 0.053134
vt 0.072475 0.039594
vt 0.093506 0.024472
vt 0.053299 0.960240
vt 0.074171 0.965380
vt 0.073067 0.988655
vt 0.052295 0.979514
vt 0.061952 0.758552
vt 0.082515 0.764513
vt 0.062738 0.738582
vt 0.083396 0.741734
vt 0.089252 0.533819
vt 0.068495 0.533112
vt 0.084262 0.713525
vt 0.063312 0.713985
vt 0.138971 0.477602
vt 0.142148 0.271422
vt 0.142389 0.218269
vt 0.142704 0.034802
vt 0.122335 0.973868
vt 0.130747 0.769749
vt 0.132497 0.716390
vt 0.137867 0.531116
vt 0.138488 0.501543
vt 0.142266 0.247595
vt 0.121334 0.997286
vt 0.142683 0.006048
vt 0.131544 0.745853
vt 0.925715 0.956138
vt 0.909758 0.980740
vt 0.871233 0.990930
vt 0.568852 0.990930
vt 0.530327 0.980740
vt 0.514369 0.956138
vt 0.514369 0.663576
vt 0.530327 0.638974
vt 0.568852 0.628783
vt 0.871233 0.628783
vt 0.909758 0.638974
vt 0.925715 0.663576
vn 1.000000 0.000000 0.000000
vn 1.000000 0.000000 0.000000
vn 1.000000 0.000000 0.000000
vn 1.000000 0.000000 0.000000
vn 1.000000 0.000000 0.000000
vn 1.000000 0.000000 0.000000
vn 1.000000 0.000000 0.000000
vn 1.000000 0.000000 0.000000
vn 1.000000 0.000000 0.000000
vn 1.000000 0.000000 0.000000
vn 1.000000 0.000000 0.000000
vn 1.000000 0.000000 0.000000
vn 0.000000 -1.000000 0.000000
vn 0.000000 -1.000000 0.000000
vn 0.000000 -1.000000 0.000000
vn 0.000000 -1.000000 0.000000
vn 0.000000 1.000000 0.000000
vn 0.000000 1.000000 0.000000
vn 0.000000 1.000000 0.000000
vn 0.000000 1.000000 0.000000
vn 0.862036 -0.506847 0.000000
vn 0.862036 -0.506847 0.000000
vn 0.862036 -0.506847 0.000000
vn 0.862036 -0.506847 0.000000
vn 0.862036 0.506847 0.000000
vn 0.862036 0.506847 0.000000
vn 0.862036 0.506847 0.000000
vn 0.862036 0.506847 0.000000
vn 0.636230 -0.050054 0.769874
vn 0.635874 -0.038483 0.770833
vn 0.590833 -0.455827 0.665686
vn 0.590833 -0.455827 0.665686
vn 0.636230 0.050054 0.769874
vn 0.635874 0.038483 0.770833
vn 0.590832 0.455827 0.665687
vn 0.590832 0.455827 0.665687
vn 0.447483 0.893946 0.024897
vn 0.448132 0.893451 0.030384
vn 0.461909 0.860332 0.215568
vn 0.461909 0.860332 0.215568
vn 0.447483 0.893946 -0.024897
vn 0.448132 0.893451 -0.030384
vn 0.461910 0.860331 -0.215568
vn 0.461910 0.860331 -0.215568
vn 0.636229 0.050054 -0.769875
vn 0.635873 0.038483 -0.770833
vn 0.590833 0.455826 -0.665688
vn 0.590833 0.455826 -0.665688
vn 0.636229 -0.050054 -0.769875
vn 0.635873 -0.038483 -0.770833
vn 0.590832 -0.455826 -0.665688
vn 0.590832 -0.455826 -0.665688
vn 0.448130 -0.893452 0.030384
vn 0.447481 -0.893947 0.024897
vn 0.461908 -0.860332 0.215568
vn 0.461908 -0.860332 0.215568
vn 0.448130 -0.893452 -0.030384
vn 0.447481 -0.893947 -0.024897
vn 0.461907 -0.860332 -0.215568
vn 0.461907 -0.860332 -0.215568
vn 0.000000 -0.062484 0.998046
vn 0.000000 -0.062484 0.998046
vn 0.000000 0.062484 0.998046
vn 0.000000 0.062484 0.998046
vn 0.000000 0.999457 0.032948
vn 0.000000 0.999457 0.032948
vn 0.000000 0.999457 -0.032948
vn 0.000000 0.999457 -0.032948
vn 0.000000 0.062484 -0.998046
vn 0.000000 0.062484 -0.998046
vn 0.000000 -0.062484 -0.998046
vn 0.000000 -0.062484 -0.998046
vn -0.000000 -0.999457 -0.032948
vn -0.000000 -0.999457 -0.032948
vn 0.000000 -0.999457 0.032948
vn 0.000000 -0.999457 0.032948
vn 0.000000 -0.564986 0.825101
vn 0.000000 -0.564986 0.825101
vn 0.000000 -0.970014 0.243050
vn 0.000000 -0.970014 0.243050
vn 0.000000 0.970014 0.243050
vn 0.000000 0.970014 0.243050
vn 0.000000 0.564985 0.825101
vn 0.000000 0.564985 0.825101
vn 0.000000 0.564982 -0.825103
vn 0.000000 0.564982 -0.825103
vn 0.000000 0.970014 -0.243050
vn 0.000000 0.970014 -0.243050
vn -0.000000 -0.970014 -0.243051
vn -0.000000 -0.970014 -0.243051
vn 0.000000 -0.564984 -0.825102
vn 0.000000 -0.564984 -0.825102
vn 1.000000 -0.000000 0.000000
vn 1.000000 -0.000000 0.000000
vn 1.000000 -0.000000 0.000000
vn 1.000000 -0.000000 0.000000
vn 1.000000 -0.000000 0.000000
vn 1.000000 -0.000000 0.000000
vn 1.000000 -0.000000 0.000000
vn 1.000000 -0.000000 0.000000
vn 1.000000 -0.000000 0.000000
vn 1.000000 -0.000000 0.000000
vn 1.000000 -0.000000 0.000000
vn 1.000000 -0.000000 0.000000
s off
g pCube18
usemtl initialShadingGroup
f 5/11/1 6/5/2 3/4/3 2/2/4
f 10/13/5 11/9/6 14/15/7 15/10/8
f 1/1/9 4/3/10 8/7/11 7/6/12
f 7/6/13 8/7/14 12/14/15 9/8/16
f 6/5/17 5/11/18 16/16/19 13/12/20
f 10/13/21 9/8/22 12/14/23 11/9/24
f 14/15/25 13/12/26 16/16/27 15/10/28
s 1
f 29/17/29 30/18/30 46/19/31 45/20/32
f 30/18/30 29/17/29 32/21/33 31/22/34
f 31/22/34 32/21/33 47/23/35 48/24/36
s 2
f 33/25/37 34/26/38 48/24/39 47/23/40
f 34/26/38 33/25/37 36/27/41 35/28/42
f 35/28/42 36/27/41 49/29/43 50/30/44
s 3
f 37/31/45 38/32/46 50/33/47 49/34/48
f 38/32/46 37/31/45 40/35/49 39/36/50
f 39/36/50 40/35/49 51/37/51 52/38/52
s 4
f 41/39/53 42/40/54 45/20/55 46/19/56
f 42/40/54 41/39/53 44/41/57 43/42/58
f 43/42/58 44/41/57 52/38/59 51/37/60
s 5
f 19/43/61 30/18/62 31/22/63 20/44/64
s 6
f 22/45/65 34/26/66 35/28/67 23/46/68
s 7
f 25/47/69 38/32/70 39/36/71 26/48/72
s 8
f 28/49/73 44/41/74 41/39/75 17/50/76
s 5
f 19/43/61 18/51/77 46/19/78 30/18/62
s 8
f 18/51/79 17/50/76 41/39/75 46/19/80
s 6
f 22/45/65 21/52/81 48/24/82 34/26/66
s 5
f 21/52/83 20/44/64 31/22/63 48/24/84
s 7
f 25/47/69 24/53/85 50/33/86 38/32/70
s 6
f 24/54/87 23/46/68 35/28/67 50/30/88
s 8
f 28/49/73 27/55/89 52/38/90 44/41/74
s 7
f 27/55/91 26/48/72 39/36/71 52/38/92
s off
f 37/56/93 49/57/94 36/58/95 33/59/96 47/60/97 32/61/98 29/62/99 45/63/100 42/64/101 43/65/102 51/66/103 40/67/104
