# This file uses centimeters as units for non-parametric coordinates.

mtllib Sci-Fi Wall.mtl
g default
v 0.000000 0.001013 1.000000
v 0.000000 1.001013 1.000000
v 0.000000 1.001013 0.000000
v 0.000000 0.001013 0.000000
v -0.086314 0.264323 0.000000
v -0.086314 0.264323 1.000000
v -0.086314 0.711214 0.000000
v -0.086314 0.711214 1.000000
v 0.000000 0.771628 0.000000
v -0.060414 0.711214 0.000000
v -0.060414 0.711214 1.000000
v 0.000000 0.771628 1.000000
v -0.060414 0.264323 0.000000
v 0.000000 0.203909 0.000000
v 0.000000 0.203909 1.000000
v -0.060414 0.264323 1.000000
vt 0.005347 0.007597
vt 0.701144 0.007597
vt 0.701144 0.196932
vt 0.005347 0.196932
vt 0.003504 0.831583
vt 0.710577 0.831583
vt 0.710577 0.979664
vt 0.003504 0.979664
vt 0.024578 0.200502
vt 0.988294 0.200502
vt 0.988294 0.831951
vt 0.024578 0.831951
vt 0.005348 0.281139
vt 0.701144 0.281139
vt 0.701144 0.498371
vt 0.005347 0.498371
vt 0.710577 0.746011
vt 0.003504 0.746011
vt 0.003504 0.525257
vt 0.710577 0.525257
vn 1.000000 0.000000 0.000000
vn 1.000000 0.000000 0.000000
vn 1.000000 0.000000 0.000000
vn 1.000000 0.000000 0.000000
vn 1.000000 0.000000 0.000000
vn 1.000000 0.000000 0.000000
vn 1.000000 0.000000 0.000000
vn 1.000000 0.000000 0.000000
vn 1.000000 0.000000 0.000000
vn 1.000000 0.000000 0.000000
vn 1.000000 0.000000 0.000000
vn 1.000000 0.000000 0.000000
vn 0.000000 1.000000 0.000000
vn 0.000000 1.000000 0.000000
vn 0.000000 1.000000 0.000000
vn 0.000000 1.000000 0.000000
vn 0.000000 -1.000000 0.000000
vn 0.000000 -1.000000 0.000000
vn 0.000000 -1.000000 0.000000
vn 0.000000 -1.000000 0.000000
vn 0.707109 -0.707105 0.000000
vn 0.707109 -0.707105 0.000000
vn 0.707109 -0.707105 0.000000
vn 0.707109 -0.707105 0.000000
vn 0.707106 0.707108 0.000000
vn 0.707106 0.707108 0.000000
vn 0.707106 0.707108 0.000000
vn 0.707106 0.707108 0.000000
s off
g polySurface13 polySurface4
usemtl lambert4SG
f 1/1/1 4/2/2 14/3/3 15/4/4
f 12/5/5 9/6/6 3/7/7 2/8/8
usemtl lambert2SG
f 6/9/9 5/10/10 7/11/11 8/12/12
usemtl lambert4SG
f 16/13/13 13/14/14 5/15/15 6/16/16
f 10/17/17 11/18/18 8/19/19 7/20/20
f 10/17/21 9/6/22 12/5/23 11/18/24
f 14/3/25 13/14/26 16/13/27 15/4/28
