# This file uses centimeters as units for non-parametric coordinates.

mtllib Tent test.mtl
g default
v -1.549091 0.373893 0.500000
v -1.496746 0.459382 0.500000
v -1.437697 0.535031 0.500000
v -1.364124 0.545662 0.500000
v -1.267102 0.560636 0.502485
v -1.165964 0.569155 0.506410
v -1.068627 0.588231 0.509837
v -0.964449 0.609228 0.508881
v -0.866538 0.643763 0.507920
v -0.766538 0.653781 0.507852
v -0.666538 0.653781 0.507852
v -1.549091 0.373893 -0.500000
v -1.496746 0.459382 -0.500000
v -1.437697 0.535031 -0.500000
v -1.364124 0.545662 -0.500000
v -1.267102 0.560636 -0.496854
v -1.165964 0.569155 -0.491506
v -1.068627 0.588231 -0.489043
v -0.964449 0.609228 -0.491119
v -0.866538 0.643763 -0.492080
v -0.766538 0.653781 -0.492148
v -0.666538 0.653781 -0.492148
v -1.457436 -0.499576 0.336919
v -1.331583 -0.499576 0.336919
v -1.457436 0.500424 0.336919
v -1.331583 0.542569 0.336919
v -1.457436 0.500424 -0.336919
v -1.331583 0.542569 -0.336919
v -1.457436 -0.499576 -0.336919
v -1.331583 -0.499576 -0.336919
v -1.457436 -0.499576 0.408728
v -1.331583 -0.499576 0.408728
v -1.331583 0.542569 0.408728
v -1.457436 0.500424 0.408728
v -1.457436 0.500424 -0.408728
v -1.331583 0.542569 -0.408728
v -1.331583 -0.499576 -0.408728
v -1.457436 -0.499576 -0.408728
vt 0.000000 0.000000
vt 0.100000 0.000000
vt 0.200000 0.000000
vt 0.300000 0.000000
vt 0.400000 0.000000
vt 0.500000 0.000000
vt 0.600000 0.000000
vt 0.700000 0.000000
vt 0.800000 0.000000
vt 0.900000 0.000000
vt 1.000000 0.000000
vt 0.000000 1.000000
vt 0.100000 1.000000
vt 0.200000 1.000000
vt 0.300000 1.000000
vt 0.400000 1.000000
vt 0.500000 1.000000
vt 0.600000 1.000000
vt 0.700000 1.000000
vt 0.800000 1.000000
vt 0.900000 1.000000
vt 1.000000 1.000000
vt 0.375000 0.000000
vt 0.625000 0.000000
vt 0.625000 0.250000
vt 0.375000 0.250000
vt 0.375000 0.500000
vt 0.625000 0.500000
vt 0.625000 0.750000
vt 0.375000 0.750000
vt 0.375000 0.000000
vt 0.375000 0.250000
vt 0.625000 0.250000
vt 0.625000 0.000000
vt 0.375000 0.500000
vt 0.375000 0.750000
vt 0.625000 0.750000
vt 0.625000 0.500000
vt 0.375000 0.000000
vt 0.625000 0.000000
vt 0.625000 0.250000
vt 0.375000 0.250000
vt 0.375000 0.500000
vt 0.625000 0.500000
vt 0.625000 0.750000
vt 0.375000 0.750000
vn -0.852832 0.522186 0.000000
vn -0.822582 0.568647 0.000000
vn -0.822582 0.568647 0.000000
vn -0.852832 0.522186 0.000000
vn -0.545327 0.838223 0.000000
vn -0.545327 0.838223 0.000000
vn -0.148467 0.988917 0.000000
vn -0.148382 0.988930 0.000000
vn -0.117054 0.993126 0.000000
vn -0.118680 0.992933 0.000000
vn -0.138972 0.990296 0.000000
vn -0.136379 0.990657 0.000000
vn -0.195065 0.980790 0.000000
vn -0.195039 0.980796 0.000000
vn -0.264595 0.964360 0.000000
vn -0.265611 0.964080 0.000000
vn -0.219987 0.975503 0.000000
vn -0.219246 0.975670 0.000000
vn -0.050035 0.998747 0.000000
vn -0.050014 0.998749 0.000000
vn 0.000000 1.000000 0.000000
vn 0.000000 1.000000 0.000000
vn -0.000000 0.000000 1.000000
vn -0.000000 0.000000 1.000000
vn -0.000000 0.000000 1.000000
vn -0.000000 0.000000 1.000000
vn -0.000000 0.000000 -1.000000
vn -0.000000 0.000000 -1.000000
vn -0.000000 0.000000 -1.000000
vn -0.000000 0.000000 -1.000000
vn 0.000000 0.000000 -1.000000
vn 0.000000 0.000000 -1.000000
vn 0.000000 0.000000 -1.000000
vn 0.000000 0.000000 -1.000000
vn 0.000000 0.000000 1.000000
vn 0.000000 0.000000 1.000000
vn 0.000000 0.000000 1.000000
vn 0.000000 0.000000 1.000000
vn 0.000000 -1.000000 0.000000
vn 0.000000 -1.000000 0.000000
vn 0.000000 -1.000000 0.000000
vn 0.000000 -1.000000 0.000000
vn 1.000000 0.000000 0.000000
vn 1.000000 0.000000 0.000000
vn 1.000000 0.000000 0.000000
vn 1.000000 0.000000 0.000000
vn -0.317537 0.948246 0.000000
vn -0.317537 0.948246 0.000000
vn -0.317537 0.948246 0.000000
vn -0.317537 0.948246 0.000000
vn -1.000000 0.000000 0.000000
vn -1.000000 0.000000 0.000000
vn -1.000000 0.000000 0.000000
vn -1.000000 0.000000 0.000000
vn -0.317537 0.948246 0.000000
vn -0.317537 0.948246 0.000000
vn -0.317537 0.948246 0.000000
vn -0.317537 0.948246 0.000000
vn 1.000000 0.000000 0.000000
vn 1.000000 0.000000 0.000000
vn 1.000000 0.000000 0.000000
vn 1.000000 0.000000 0.000000
vn 0.000000 -1.000000 0.000000
vn 0.000000 -1.000000 0.000000
vn 0.000000 -1.000000 0.000000
vn 0.000000 -1.000000 0.000000
vn -1.000000 0.000000 0.000000
vn -1.000000 0.000000 0.000000
vn -1.000000 0.000000 0.000000
vn -1.000000 0.000000 0.000000
s 1
g pPlane2
usemtl initialShadingGroup
f 1/1/1 2/2/2 13/13/3 12/12/4
f 2/2/2 3/3/5 14/14/6 13/13/3
f 3/3/5 4/4/7 15/15/8 14/14/6
f 4/4/7 5/5/9 16/16/10 15/15/8
f 5/5/9 6/6/11 17/17/12 16/16/10
f 6/6/11 7/7/13 18/18/14 17/17/12
f 7/7/13 8/8/15 19/19/16 18/18/14
f 8/8/15 9/9/17 20/20/18 19/19/16
f 9/9/17 10/10/19 21/21/20 20/20/18
f 10/10/19 11/11/21 22/22/22 21/21/20
s off
f 31/23/23 32/24/24 33/25/25 34/26/26
f 35/27/27 36/28/28 37/29/29 38/30/30
f 23/31/31 25/32/32 26/33/33 24/34/34
f 27/35/35 29/36/36 30/37/37 28/38/38
f 23/39/39 24/40/40 32/24/41 31/23/42
f 24/40/43 26/41/44 33/25/45 32/24/46
f 26/41/47 25/42/48 34/26/49 33/25/50
f 25/42/51 23/39/52 31/23/53 34/26/54
f 27/43/55 28/44/56 36/28/57 35/27/58
f 28/44/59 30/45/60 37/29/61 36/28/62
f 30/45/63 29/46/64 38/30/65 37/29/66
f 29/46/67 27/43/68 35/27/69 38/30/70
